<svg xmlns="http://www.w3.org/2000/svg" width="12" height="12" viewBox="0 0 12 12"><title>cogwheel</title><g stroke-width="1" fill="#3268e5" stroke="#3268e5"><circle cx="6" cy="6" r="1.5" fill="none" stroke-linecap="round" stroke-linejoin="round" data-color="color-2"></circle> <path d="M10,6a3.948,3.948,0,0,0-.142-1l1.28-1.1-.75-1.3-1.579.556a3.989,3.989,0,0,0-1.748-1L6.75.5H5.25L4.939,2.16a3.989,3.989,0,0,0-1.748,1L1.612,2.6.862,3.9,2.142,5A3.948,3.948,0,0,0,2,6a3.948,3.948,0,0,0,.142,1L.862,8.1l.75,1.3,1.579-.555a3.989,3.989,0,0,0,1.748,1L5.25,11.5h1.5l.311-1.66a3.989,3.989,0,0,0,1.748-1l1.579.555.75-1.3L9.858,7A3.948,3.948,0,0,0,10,6Z" fill="none" stroke="#3268e5" stroke-linecap="round" stroke-linejoin="round"></path></g></svg>